<svg height="512pt" viewBox="0 0 512.04121 512" width="512pt" fill='white' xmlns="http://www.w3.org/2000/svg"><path d="m497.929688 2.074219-225.878907 192.941406c-9.664062.789063-18.582031 5.5-24.679687 13.039063l-2.636719-9.386719c-2.394531-8.453125-6.925781-16.148438-13.15625-22.339844 24.683594-7.949219 41.4375-30.894531 41.488281-56.824219 0-.71875-.171875-1.535156-.203125-2.261718 5.367188-3 8.703125-8.65625 8.738281-14.804688v-17.066406c-.035156-6.265625-3.496093-12.007813-9.019531-14.960938-1.214843-21.710937-14.378906-40.957031-34.179687-49.953125-2.453125-11.890625-12.925782-20.4218748-25.070313-20.4218748-12.140625 0-22.613281 8.5312498-25.070312 20.4218748-19.796875 8.996094-32.960938 28.242188-34.175781 49.953125-5.523438 2.953125-8.984376 8.695313-9.019532 14.960938v17.066406c.03125 6.148438 3.371094 11.804688 8.738282 14.804688 0 .726562-.203126 1.542968-.203126 2.261718.003907 12.761719 4.125 25.183594 11.75 35.421875-15.398437 2.5-28.804687 11.898438-36.40625 25.523438l-45.8125 82.464843c-8.269531 15.007813-10.566406 32.582032-6.433593 49.210938-4.300781-2.441406-9.226563-3.550781-14.160157-3.183594-10.328124.671875-19.238281 7.5-22.574218 17.296875-3.335938 9.800781-.441406 20.644531 7.335937 27.480469l46.738281 41.0625c6.457032 5.664062 15.328126 7.714844 23.617188 5.457031 8.289062-2.261719 14.890625-8.527343 17.578125-16.6875l4.917969 4.726563c1.652344 1.589844 2.597656 3.78125 2.617187 6.074218.023438 2.292969-.882812 4.5-2.507812 6.121094l-36.351563 36.265625-17.066406 17.066407c-10.996094 10.878906-13.191406 27.84375-5.324219 41.164062h-72.984375c-4.714844 0-8.535156 3.820312-8.535156 8.535156 0 4.710938 3.820312 8.53125 8.535156 8.53125h366.929688c23.554687-.027344 42.640625-19.113281 42.667968-42.664062 0-4.714844-3.820312-8.535156-8.53125-8.535156-4.714843 0-8.535156 3.820312-8.535156 8.535156 0 14.136718-11.460937 25.597656-25.601562 25.597656h-233.25l9.984375-9.863281 49.308593-48.726563c11.613282-11.480468 18.019532-27.214844 17.726563-43.539062-.289063-16.328125-7.25-31.824219-19.265625-42.886719l-35.726562-32.886719c-1.484376-1.371094-2.425782-3.226562-2.664063-5.230468l35.542969-30.351563 1.203125 4.265625c6.410156 22.664062 29.953125 35.867188 52.632812 29.515625l2.117188-.589844c11.394531-3.222656 20.945312-11.019531 26.382812-21.535156l25.019531-48.640625c4.261719-8.324219 4.9375-18.027344 1.871094-26.863281-2.554687-7.25-7.511718-13.410157-14.046875-17.460938l216.746094-185.121093c3.585937-3.0625 4.011719-8.453126.949219-12.039063-3.066406-3.585937-8.457032-4.011719-12.042969-.949219zm-284.597657 160.09375c-23.550781-.027344-42.636719-19.113281-42.664062-42.664063h85.332031c-.027344 23.550782-19.113281 42.636719-42.667969 42.664063zm-51.199219-59.730469v-17.066406h102.402344v17.066406zm51.199219-85.335938c4.714844 0 8.535157 3.820313 8.535157 8.535157-.039063.289062-.097657.570312-.171876.851562-.078124.96875-.316406 1.914063-.707031 2.800781-.050781.085938-.121093.152344-.171875.238282-.417968.851562-.980468 1.628906-1.65625 2.296875-.21875.203125-.511718.324219-.757812.511719-.5625.480468-1.191406.886718-1.859375 1.203124-2.050781.863282-4.367188.863282-6.417969 0-.671875-.316406-1.296875-.722656-1.859375-1.203124-.25-.1875-.539063-.308594-.761719-.511719-.675781-.667969-1.234375-1.445313-1.65625-2.296875-.050781-.085938-.117187-.152344-.167968-.238282-.390626-.886718-.632813-1.832031-.710938-2.800781-.074219-.28125-.128906-.5625-.167969-.851562 0-4.714844 3.820313-8.535157 8.53125-8.535157zm-22.414062 20.769532c.152343.285156.347656.53125.511719.8125.375.632812.742187 1.253906 1.175781 1.851562.707031.992188 1.480469 1.933594 2.320312 2.816406.410157.425782.855469.792969 1.296875 1.1875.644532.605469 1.324219 1.175782 2.03125 1.707032.453125.332031.90625.664062 1.382813.972656 1.140625.734375 2.335937 1.382812 3.574219 1.933594.265624.121094.546874.191406.8125.292968 1.136718.449219 2.304687.816407 3.5 1.089844.417968.09375.851562.1875 1.253906.265625 3.007812.613281 6.105468.613281 9.113281 0 .425781-.078125.851563-.171875 1.253906-.265625 1.191407-.277344 2.359375-.636718 3.5-1.082031.261719-.109375.542969-.1875.851563-.300781 1.238281-.550782 2.429687-1.199219 3.566406-1.933594.480469-.308594.929688-.640625 1.382812-.972656.707032-.53125 1.386719-1.101563 2.03125-1.707032.433594-.394531.855469-.761718 1.296876-1.1875.839843-.882812 1.617187-1.824218 2.320312-2.816406.4375-.597656.804688-1.21875 1.179688-1.859375.160156-.273437.359374-.519531.511718-.804687 10.664063 6.78125 17.800782 17.910156 19.507813 30.433594h-83.917969c1.714844-12.527344 8.863281-23.660157 19.542969-30.433594zm-73.574219 343.265625c-3.109375 3.539062-8.5 3.890625-12.042969.785156l-46.738281-41.074219c-2.589844-2.277344-3.554688-5.890625-2.445312-9.15625 1.113281-3.265625 4.082031-5.542968 7.523437-5.765625 2.257813-.121093 4.476563.636719 6.1875 2.113281l46.738281 41.046876c1.699219 1.492187 2.738282 3.601562 2.882813 5.863281.148437 2.261719-.613281 4.484375-2.105469 6.1875zm5.65625 108.832031c-6.75 6.449219-17.382812 6.449219-24.132812 0-3.210938-3.191406-5.011719-7.539062-5-12.066406 0-1.125.109374-2.25.324218-3.351563.660156-3.300781 2.285156-6.332031 4.667969-8.707031l4.582031-4.574219 6.476563-6.457031 24.175781 24.191406zm62.660156-221.132812 5.394532-8.824219.953124 3.414062zm103.621094-32.121094-25.011719 48.640625c-3.265625 6.316406-8.996093 10.996093-15.839843 12.929687l-2.113282.597656c-13.613281 3.824219-27.75-4.105468-31.574218-17.714843l-7.261719-25.789063c-1.84375-6.527344-7.378907-11.34375-14.097657-12.269531s-13.347656 2.214844-16.886718 8.003906l-28.324219 46.351563c-1.722656 2.863281-2.863281 6.039062-3.359375 9.34375 0 .164062 0 .308594-.054688.480468-1.179687 8.296876 1.78125 16.648438 7.921876 22.355469l35.726562 32.886719c8.585938 7.902344 13.558594 18.972656 13.765625 30.632812.210937 11.664063-4.367187 22.90625-12.664063 31.105469l-43.273437 42.769531-24.207031-24.277343 30.328125-30.25c4.871093-4.859375 7.582031-11.472657 7.523437-18.355469-.0625-6.878906-2.890625-13.445312-7.847656-18.21875l-44.683594-42.972656c-16.726562-16.113282-20.527344-41.460938-9.265625-61.773438l45.816407-82.464844c7.980468-14.355468 25.046874-20.988281 40.625-15.796874l21.753906 7.246093c10.738281 3.578125 19.003906 12.246094 22.066406 23.140625l8.175781 29.089844c.945313 3.382812 3.871094 5.835938 7.363281 6.1875 3.480469.320312 6.8125-1.488281 8.4375-4.582031l5.976563-11.613281c4.070313-8.5 13.996094-12.433594 22.78125-9.027344 4.277344 1.914062 7.578125 5.503906 9.128906 9.925781s1.214844 9.285156-.925781 13.453125zm0 0"/></svg>