<svg height="511pt" viewBox="-46 0 511 511.99957" width="511pt" fill='white' xmlns="http://www.w3.org/2000/svg"><path d="m383.207031 3.824219c-1.25-1.890625-3.199219-3.203125-5.421875-3.652344-2.21875-.453125-4.527344 0-6.414062 1.253906l-101.828125 67.488281c-1.425781-.410156-2.902344-.628906-4.386719-.648437h-17.066406c-9.425782 0-17.066406 7.640625-17.066406 17.066406v9.105469l-226.585938 150.1875c-2.597656 1.660156-4.097656 4.59375-3.925781 7.671875.175781 3.082031 2 5.824219 4.769531 7.183594 2.769531 1.355469 6.054688 1.109375 8.59375-.640625l217.148438-143.921875v4.546875c0 9.425781 7.640624 17.066406 17.066406 17.066406v42.667969h-17.066406c-9.425782 0-17.066407 7.640625-17.066407 17.066406v17.066406h-26.453125c-24.585937-.042969-46.675781 15.011719-55.628906 37.90625-13.320312 34.6875-20.164062 71.523438-20.191406 108.679688-11.019532 3.78125-18.078125 14.554687-17.136719 26.167969.941406 11.613281 9.636719 21.113281 21.121094 23.070312 3.507812 21.511719 9 42.652344 16.410156 63.144531 8.582031 23.773438 31.117187 39.636719 56.390625 39.699219h136.308594c25.253906-.09375 47.753906-15.960938 56.320312-39.714844 7.414063-20.496094 12.90625-41.636718 16.410156-63.144531 11.488282-1.960937 20.183594-11.457031 21.125-23.070313.9375-11.617187-6.117187-22.390624-17.140624-26.167968-.023438-37.15625-6.867188-73.996094-20.1875-108.679688-8.953126-22.867187-31.007813-37.90625-55.5625-37.890625h-26.453126v-17.066406c0-9.425781-7.640624-17.066406-17.066406-17.066406h-17.066406v-42.667969c9.425781 0 17.066406-7.640625 17.066406-17.066406v-34.132813c-.015625-1.347656-.191406-2.691406-.519531-4l99.105469-65.707031c3.914062-2.605469 4.984375-7.878906 2.398437-11.800781zm-235.042969 462.667969c-6.707031-18.488282-11.796874-37.523438-15.207031-56.894532h98.066407v85.335938h-42.554688c-18.078125-.066406-34.183594-11.433594-40.304688-28.441406zm99.925782 28.441406v-85.335938h17.066406v85.335938zm116.992187-28.433594c-6.125 17.003906-22.230469 28.367188-40.304687 28.433594h-42.554688v-85.335938h98.066406c-3.410156 19.375-8.5 38.410156-15.207031 56.902344zm28.074219-73.96875h-273.066406c-4.710938 0-8.53125-3.820312-8.53125-8.53125 0-4.714844 3.820312-8.535156 8.53125-8.535156h273.066406c4.714844 0 8.535156 3.820312 8.535156 8.535156 0 4.710938-3.820312 8.53125-8.535156 8.53125zm-136.53125-76.796875c-14.140625 0-25.601562-11.464844-25.601562-25.601563 0-14.136718 11.460937-25.601562 25.601562-25.601562 14.136719 0 25.597656 11.464844 25.597656 25.601562 0 14.136719-11.460937 25.601563-25.597656 25.601563zm8.53125 17.066406c15.558594.015625 29.144531 10.539063 33.050781 25.597657h-83.167969c3.910157-15.058594 17.492188-25.582032 33.050782-25.597657zm100.234375-75.488281c12.417969 32.269531 18.90625 66.511719 19.15625 101.085938h-68.957031c-2.839844-16.644532-13.691406-30.828126-29.015625-37.921876 12.347656-12.148437 16.121093-30.550781 9.558593-46.578124-6.5625-16.03125-22.164062-26.5-39.484374-26.5-17.320313 0-32.921876 10.46875-39.484376 26.5-6.5625 16.027343-2.785156 34.429687 9.558594 46.578124-15.34375 7.082032-26.214844 21.265626-29.066406 37.921876h-68.957031c.25-34.574219 6.742187-68.824219 19.160156-101.09375 6.40625-16.28125 22.148437-26.960938 39.644531-26.90625h138.238282c17.5-.054688 33.238281 10.632812 39.648437 26.914062zm-83.167969-43.980469h-51.199218v-17.066406h51.199218zm-34.132812-93.867187v-34.132813h17.066406v34.132813zm0 0"/><path d="m181.53125 259.414062-25.601562 34.132813c-1.828126 2.4375-2.21875 5.667969-1.019532 8.472656 1.195313 2.800781 3.800782 4.753907 6.824219 5.117188 3.027344.367187 6.019531-.910157 7.847656-3.351563l25.601563-34.132812c1.828125-2.4375 2.21875-5.667969 1.019531-8.472656-1.195313-2.800782-3.800781-4.753907-6.824219-5.117188-3.027344-.367188-6.019531.910156-7.847656 3.351562zm0 0"/><path d="m333.421875 315.734375c2.855469 0 5.523437-1.421875 7.109375-3.796875l17.066406-25.601562c1.691406-2.535157 1.902344-5.785157.550782-8.515626-1.347657-2.734374-4.054688-4.539062-7.097657-4.738281-3.042969-.195312-5.960937 1.246094-7.652343 3.78125l-17.066407 25.601563c-1.746093 2.617187-1.910156 5.980468-.425781 8.757812 1.480469 2.773438 4.371094 4.507813 7.515625 4.511719zm0 0"/></svg>