<svg height="512pt" viewBox="-43 0 512 512.00724" width="512pt" fill='white' xmlns="http://www.w3.org/2000/svg"><path d="m256.003906 512c9.839844-.03125 19.179688-4.335938 25.601563-11.792969 9.289062 10.78125 24.316406 14.632813 37.648437 9.644531 13.332032-4.984374 22.144532-17.75 22.082032-31.984374v-59.734376h34.132812c10.8125-.042968 20.429688-6.875 24.03125-17.066406h1.570312c14.136719 0 25.601563-11.460937 25.601563-25.601562v-119.464844c-.0625-51.816406-42.050781-93.804688-93.867187-93.867188h-86.1875c-3.453126-16.742187-16.535157-29.828124-33.28125-33.28125v-26.453124h8.535156c9.425781 0 17.066406-7.640626 17.066406-17.066407v-34.132812c-.019531-6.070313-3.269531-11.667969-8.535156-14.695313v-27.96875c0-4.714844-3.820313-8.535156-8.53125-8.535156h-34.132813c-4.714843 0-8.535156 3.820312-8.535156 8.535156v27.96875c-5.261719 3.027344-8.515625 8.625-8.53125 14.695313v34.132812c0 9.425781 7.640625 17.066407 17.066406 17.066407h8.53125v26.453124c-16.742187 3.453126-29.828125 16.539063-33.277343 33.28125h-69.121094c-51.816406.0625-93.8046878 42.050782-93.86718775 93.867188v119.464844c0 14.140625 11.46093775 25.601562 25.60156275 25.601562h1.566406c3.605469 10.191406 13.222656 17.023438 24.03125 17.066406h34.132813v59.734376c-.0625 14.234374 8.75 27 22.082031 31.984374 13.332031 4.988282 28.359375 1.136719 37.652343-9.644531 9.292969 10.78125 24.320313 14.632813 37.652344 9.644531 13.332032-4.984374 22.144532-17.75 22.082032-31.984374v-59.734376h17.066406v59.734376c0 18.851562 15.28125 34.132812 34.132812 34.132812zm-59.734375-494.933594h17.066407v17.066406h-17.066407zm-8.53125 34.132813h34.132813v34.132812h-34.132813zm-17.066406 332.800781c-1.523437.050781-3.039063.203125-4.542969.460938-.691406.09375-1.40625.078124-2.082031.203124-2.34375.460938-4.632813 1.171876-6.824219 2.117188-.519531.222656-.972656.554688-1.476562.804688-1.632813.769531-3.199219 1.671874-4.683594 2.695312-.691406.484375-1.289062 1.066406-1.949219 1.605469-1.171875.9375-2.28125 1.949219-3.316406 3.035156-.222656.238281-.511719.410156-.726563.65625-.222656-.253906-.511718-.441406-.742187-.691406-.921875-.945313-1.898437-1.84375-2.917969-2.6875-.726562-.613281-1.417968-1.253907-2.203125-1.808594-1.144531-.785156-2.339843-1.5-3.574219-2.132813-.792968-.433593-1.546874-.921874-2.371093-1.296874-1.4375-.597657-2.914063-1.09375-4.421875-1.484376-.742188-.222656-1.449219-.53125-2.21875-.691406-2.347656-.515625-4.746094-.777344-7.152344-.785156-.492188 0-.988281 0-1.484375 0 .347656-1.027344.632813-2.070312.855469-3.132812 0-.109376.066406-.210938.09375-.332032.28125-1.492187.433594-3.003906.453125-4.523437 0-.195313.058593-.382813.058593-.578125v-25.566406c0-4.714844-3.820312-8.535157-8.535156-8.535157-4.710937 0-8.53125 3.820313-8.53125 8.535157v1.449218c-1.097656-.390625-2.222656-.703125-3.363281-.9375-.09375 0-.1875 0-.28125 0-1.601563-.324218-3.230469-.496094-4.863281-.511718-.375 0-.726563.09375-1.101563.109374-.613281 0-1.203125.113282-1.808593.179688-1.546876.175781-3.070313.496094-4.558594.957031-.347656.101563-.722656.09375-1.066406.210938v-9.992188c0-14.136719 11.460937-25.597656 25.601562-25.597656h68.265625c14.140625 0 25.601563 11.460937 25.601563 25.597656v9.992188c-.34375-.117188-.71875-.109375-1.058594-.210938-1.492188-.460937-3.023438-.78125-4.574219-.957031-.605469-.066406-1.195313-.152344-1.800781-.179688-.375 0-.726563-.109374-1.101563-.109374-1.640625.007812-3.277343.171874-4.890625.496093-.09375 0-.1875 0-.28125 0-1.140625.230469-2.261718.546875-3.359375.9375v-1.433593c0-4.714844-3.820312-8.535157-8.535156-8.535157-4.710937 0-8.53125 3.820313-8.53125 8.535157v25.597656c0 .199218.050781.378906.058594.566406.015625 1.523438.167969 3.042969.453125 4.539062 0 .109376.066406.210938.09375.324219.214844 1.0625.5 2.113281.851562 3.140625-.238281 0-.453125.050782-.683594.050782-.230468 0-.503906-.085938-.773437-.085938zm-85.335937-8.535156c.011718-1.199219.277343-2.386719.777343-3.480469.1875-.316406.398438-.621094.625-.914063.398438-.695312.894531-1.328124 1.472657-1.882812.636718-.597656 1.363281-1.085938 2.152343-1.453125l.351563-.160156c.9375-.375 1.933594-.578125 2.941406-.597657h.648438c.875.042969 1.738281.214844 2.5625.511719.175781.066407.375.121094.554687.203125.921875.417969 1.765625.996094 2.488281 1.707032l.085938.101562c.664062.695312 1.207031 1.5 1.605468 2.375.085938.195312.160157.390625.230469.597656.242188.691406.386719 1.417969.433594 2.148438.058594.417968.085937.839844.085937 1.265625-.050781.808593-.214843 1.605469-.484374 2.371093-.09375.265626-.171876.535157-.28125.777344-.359376.738282-.824219 1.425782-1.375 2.039063-.179688.195312-.375.425781-.519532.5625-.691406.65625-1.484375 1.191406-2.347656 1.585937-1.085938.511719-2.273438.777344-3.472656.777344-4.714844 0-8.535156-3.820312-8.535156-8.535156zm25.601562-110.929688c0-18.851562 15.28125-34.136718 34.132812-34.136718 18.851563 0 34.132813 15.285156 34.132813 34.136718 0 18.847656-15.28125 34.132813-34.132813 34.132813-18.851562 0-34.132812-15.285157-34.132812-34.132813zm110.933594 76.796875c0-14.136719 11.460937-25.597656 25.597656-25.597656h68.269531c14.136719 0 25.597657 11.460937 25.597657 25.597656v9.992188c-.339844-.117188-.714844-.109375-1.058594-.210938-1.492188-.460937-3.023438-.78125-4.574219-.957031-.605469-.066406-1.191406-.152344-1.796875-.179688-.378906 0-.726562-.109374-1.101562-.109374-1.644532.007812-3.28125.171874-4.890626.496093-.09375 0-.1875 0-.28125 0-1.140624.230469-2.265624.546875-3.363281.9375v-1.433593c0-4.714844-3.820312-8.535157-8.53125-8.535157-4.714843 0-8.535156 3.820313-8.535156 8.535157v25.597656c0 .199218.050781.378906.058594.566406.019531 1.523438.171875 3.042969.453125 4.539062 0 .109376.070312.210938.09375.324219.214844 1.0625.5 2.113281.855468 3.140625-.230468 0-.453124.050782-.683593.050782s-.503907-.085938-.777344-.085938c-1.542969.046875-3.078125.203125-4.597656.46875-.660157.085938-1.332031.070312-1.980469.195312-2.375.464844-4.691406 1.179688-6.914062 2.136719-.324219.144531-.597657.347657-.910157.5-1.835937.84375-3.585937 1.847657-5.242187 3.003907-.640625.453124-1.195313.992187-1.800782 1.484374-1.207031.96875-2.347656 2.019532-3.410156 3.140626-.222656.230468-.503906.410156-.71875.648437-.222656-.253906-.511718-.441406-.742187-.691406-.921875-.945313-1.898438-1.84375-2.917969-2.6875-.726562-.613281-1.417969-1.253907-2.203125-1.808594-1.144531-.785156-2.339844-1.5-3.574219-2.132813-.792968-.433593-1.542968-.921874-2.371094-1.296874-1.4375-.597657-2.914062-1.09375-4.421874-1.484376-.742188-.222656-1.449219-.53125-2.21875-.691406-2.355469-.515625-4.761719-.777344-7.175782-.785156-.496094 0-.988281 0-1.484375 0 .347657-1.027344.632813-2.070312.851563-3.132812 0-.109376.070312-.210938.09375-.332032.285156-1.492187.4375-3.003906.453125-4.523437 0-.195313.058593-.382813.058593-.578125v-25.566406c0-4.714844-3.820312-8.535157-8.53125-8.535157-4.714843 0-8.535156 3.820313-8.535156 8.535157v1.449218c-1.097656-.390625-2.21875-.703125-3.359375-.9375-.09375 0-.1875 0-.28125 0-1.601562-.324218-3.230469-.496094-4.867187-.511718-.375 0-.722656.09375-1.097656.109374-.617188 0-1.203126.113282-1.8125.179688-1.542969.175781-3.070313.496094-4.554688.957031-.351562.101563-.726562.09375-1.066406.210938zm25.597656-76.796875c0-18.851562 15.285156-34.136718 34.136719-34.136718 18.847656 0 34.132812 15.285156 34.132812 34.136718 0 18.847656-15.285156 34.132813-34.132812 34.132813-18.851563 0-34.136719-15.285157-34.136719-34.132813zm85.335938 119.464844c-1.179688-.003906-2.34375-.257812-3.414063-.75-.867187-.394531-1.660156-.933594-2.347656-1.589844-.144531-.136718-.339844-.363281-.519531-.5625-.558594-.617187-1.023438-1.3125-1.382813-2.0625-.109375-.222656-.179687-.480468-.273437-.726562-.28125-.777344-.445313-1.589844-.484376-2.414063 0-.402343.023438-.804687.074219-1.203125.046875-.757812.195313-1.503906.445313-2.21875.066406-.1875.136718-.375.222656-.554687.398438-.882813.945312-1.695313 1.613281-2.398438l.074219-.09375c.730469-.710937 1.574219-1.289062 2.5-1.707031.179688-.085938.375-.136719.554688-.207031.824218-.296875 1.6875-.472657 2.5625-.511719.203124 0 .433593-.050781.628906 0 1.007812.023438 2 .226562 2.9375.597656l.375.164063c1.523437.707031 2.789062 1.871093 3.617187 3.335937.226563.292969.433594.597656.625.914063 1.203125 2.636719.972657 5.710937-.609375 8.140625-1.585937 2.429687-4.300781 3.882812-7.199218 3.847656zm-142.320313-2.339844c-.144531-.136718-.339844-.363281-.519531-.5625-.558594-.617187-1.027344-1.3125-1.382813-2.0625-.109375-.222656-.179687-.480468-.273437-.726562-.28125-.777344-.445313-1.589844-.484375-2.414063 0-.402343.023437-.804687.074219-1.203125.046874-.757812.195312-1.503906.445312-2.21875.066406-.1875.136719-.375.222656-.554687.398438-.882813.945313-1.695313 1.609375-2.398438l.078125-.09375c.730469-.710937 1.574219-1.289062 2.5-1.707031.179688-.085938.375-.136719.554688-.207031.824218-.296875 1.6875-.472657 2.5625-.511719.203125 0 .433594-.050781.628906 0 1.011719.023438 2.011719.226562 2.953125.597656l.351563.164063c.789062.367187 1.511718.855469 2.148437 1.449219.578125.554687 1.078125 1.191406 1.476563 1.886718.226562.292969.433593.597656.621093.914063 1.699219 3.691406.539063 8.070312-2.769531 10.433593-3.308594 2.363282-7.828125 2.046876-10.769531-.757812zm32.164063-9.675781c.1875-.316406.394531-.621094.621093-.914063.828125-1.460937 2.09375-2.628906 3.617188-3.335937l.375-.160156c.933593-.375 1.925781-.578125 2.929687-.597657h.648438c.875.039063 1.738281.210938 2.558594.511719.179687.066407.375.121094.554687.203125.925781.417969 1.769531.996094 2.492187 1.707032l.085938.101562c.664062.695312 1.207031 1.5 1.605469 2.375.082031.195312.160156.390625.226562.597656.242188.691406.390625 1.417969.4375 2.148438.058594.417968.085938.839844.085938 1.265625-.050781.808593-.214844 1.605469-.488281 2.371093-.09375.265626-.167969.535157-.28125.777344-.359376.738282-.820313 1.425782-1.375 2.039063-.175782.195312-.375.425781-.519532.5625-1.5625 1.507812-3.648437 2.351562-5.820312 2.363281-2.898438.019531-5.605469-1.441406-7.175782-3.878906-1.574218-2.433594-1.792968-5.503906-.578124-8.136719zm33.355468 122.949219c-9.425781 0-17.066406-7.640625-17.066406-17.066406v-59.734376c.027344-5.929687 3.132812-11.425781 8.199219-14.507812.09375-.050781.195312-.066406.289062-.117188 1.253907-.730468 2.59375-1.304687 3.988281-1.707031l.382813-.121093c1.367187-.390626 2.785156-.597657 4.207031-.613282 9.425782 0 17.066406 7.640625 17.066406 17.066406v59.734376c0 9.425781-7.640624 17.066406-17.066406 17.066406zm68.265625-17.066406c0 9.425781-7.640625 17.066406-17.066406 17.066406s-17.066406-7.640625-17.066406-17.066406v-59.734376c0-9.425781 7.640625-17.066406 17.066406-17.066406 1.425781.007813 2.84375.207032 4.214844.589844l.351562.109375c1.398438.402344 2.742188.976563 4 1.707031 3.414063 2.070313 6.007813 5.257813 7.339844 9.019532.070313.1875.207031.332031.289063.519531.550781 1.652343.835937 3.382812.855468 5.121093zm51.199219-76.800782h-38.875l-.144531-.265625c.3125-.042969.621093-.136719.9375-.195312.316406-.058594.851562-.171875 1.226562-.265625 1.21875-.28125 2.414063-.652344 3.578125-1.109375.246094-.101563.492188-.167969.742188-.273438 1.332031-.582031 2.613281-1.277343 3.832031-2.082031.304687-.203125.597656-.425781.851563-.648438.949218-.671874 1.84375-1.414062 2.6875-2.21875.265624-.246093.539062-.476562.792968-.742187 1.011719-1.035156 1.9375-2.15625 2.765625-3.34375.144531-.214844.257813-.445313.394531-.65625.671876-1.046875 1.269532-2.144531 1.78125-3.277344.164063-.351562.316407-.699219.460938-1.066406s.289062-.605469.402344-.921875h18.566406c4.714844 0 8.535156 3.820312 8.535156 8.535156 0 4.710938-3.820312 8.53125-8.535156 8.53125zm-170.664062-256c10.84375.011719 20.511718 6.847656 24.140624 17.066406h-48.28125c3.628907-10.21875 13.292969-17.054687 24.140626-17.066406zm-187.734376 230.398438v-119.464844c.046876-42.394531 34.402344-76.753906 76.800782-76.800781h238.933594c42.394531.046875 76.75 34.40625 76.800781 76.800781v119.464844c0 4.714844-3.824219 8.535156-8.535157 8.535156h-1.570312c-3.601562-10.191406-13.21875-17.023438-24.03125-17.066406h-17.066406v-25.601563c-.066406-22.105469-17.042969-40.480469-39.074219-42.296875 18.734375-20.417968 17.828125-52.027344-2.042969-71.335937-19.871094-19.308594-51.492187-19.308594-71.363281 0-19.871094 19.308593-20.773437 50.917969-2.042969 71.335937-12.144531 1.003906-23.273437 7.183594-30.542968 16.960938-7.269532-9.777344-18.394532-15.957032-30.539063-16.960938 18.730469-20.417968 17.824219-52.027344-2.046875-71.335937-19.867188-19.308594-51.492188-19.308594-71.359375 0-19.871094 19.308593-20.777344 50.917969-2.046875 71.335937-22.03125 1.816406-39.007812 20.191406-39.074219 42.296875v25.601563h-17.066406c-10.808594.042968-20.425781 6.875-24.03125 17.066406h-1.566406c-4.714844 0-8.535157-3.820312-8.535157-8.535156zm34.132813 25.601562c-4.710937 0-8.53125-3.820312-8.53125-8.53125 0-4.714844 3.820313-8.535156 8.53125-8.535156h18.527344c.109375.316406.273437.613281.398437.929688.128906.316406.300782.699218.460938 1.050781.515625 1.136719 1.109375 2.234375 1.785156 3.285156.136719.210937.246094.441406.390625.65625.832031 1.1875 1.753906 2.308594 2.765625 3.34375.257812.265625.53125.496094.792969.742187.84375.804688 1.742187 1.546876 2.691406 2.21875.296875.222657.585937.445313.894531.648438 1.214844.804688 2.496094 1.5 3.832032 2.082031.246093.105469.492187.171875.742187.273438 1.164063.457031 2.359375.828125 3.574219 1.109375.410156.09375.8125.1875 1.230468.265625.417969.078125.621094.152343.9375.195312l-.144531.265625zm68.265625 93.867188c-9.425781 0-17.066406-7.640625-17.066406-17.066406v-59.734376c.019531-1.738281.308594-3.46875.855468-5.121093.085938-.1875.222657-.332031.289063-.519531 1.351563-3.761719 3.960937-6.941407 7.390625-8.992188 1.257812-.730469 2.601562-1.304688 4-1.707031l.351562-.113281c1.359376-.386719 2.765626-.59375 4.179688-.613282 9.425781 0 17.066406 7.640625 17.066406 17.066406v59.734376c0 9.425781-7.640625 17.066406-17.066406 17.066406zm68.269531-17.066406c0 9.425781-7.640625 17.066406-17.066406 17.066406s-17.066406-7.640625-17.066406-17.066406v-59.734376c0-9.425781 7.640625-17.066406 17.066406-17.066406 1.421875.007813 2.835937.207032 4.207031.589844l.382813.117188c1.394531.40625 2.730469.976562 3.984375 1.707031.09375.050781.195312.070312.289062.121093 5.078125 3.085938 8.183594 8.589844 8.203125 14.53125zm12.320313-76.800782c-.066406-.121094-.128906-.246094-.195313-.359375 5.019531-.707031 9.710938-2.902343 13.472657-6.296875 3.765624 3.394532 8.457031 5.589844 13.476562 6.296875-.070312.113281-.128906.238281-.199219.359375zm0 0"/></svg>